<svg width="102" height="56" viewBox="0 0 102 56" fill="none" xmlns="http://www.w3.org/2000/svg"><g clip-path="url(#clip0_26368_7017)"><path d="M74.1203 0C89.5139 0 102 12.54 102 28C102 43.46 89.5139 56 74.1203 56H27.8797C12.4861 56 0 43.46 0 28C0 12.54 12.4861 0 27.8797 0" fill="#0C0C0C"></path><path d="M74.1014 52H27.9186C14.7335 52 4 41.23 4 28C4 14.77 14.7335 4 27.9186 4H74.0914C81.7752 4 89.0405 7.74 93.5352 14.01C93.7345 14.29 93.6747 14.69 93.3857 14.9C93.1067 15.11 92.708 15.04 92.4987 14.75C88.2432 8.81 81.3666 5.27 74.0914 5.27H27.9186C15.4311 5.27 5.26569 15.47 5.26569 28C5.26569 40.53 15.4311 50.73 27.9186 50.73H74.0914C86.5789 50.73 96.7443 40.53 96.7443 28C96.7443 24.78 96.0865 21.66 94.781 18.74C94.6414 18.42 94.781 18.04 95.0999 17.9C95.4188 17.76 95.7975 17.9 95.937 18.22C97.3123 21.3 98 24.59 98 28C98 41.23 87.2665 52 74.0814 52H74.1014Z" fill="white"></path><path d="M25.5301 21.52C27.4201 20.83 27.6501 19.9 27.6201 19.38V17.11C27.6201 16.3 27.2801 15.81 26.9901 15.55C26.4201 15.02 25.7001 15.01 25.5101 15.02H17.7901C17.5801 15.02 16.8601 15.02 16.2901 15.55C16.0001 15.81 15.6601 16.3 15.6601 17.11V19.4C15.6501 19.79 15.8201 20.79 17.7301 21.51C18.8401 21.93 19.1801 22.06 19.1801 23.93V39.23C19.1601 39.52 19.1601 40.53 19.8501 41.28C20.1601 41.61 20.7101 42.01 21.6301 42.01C22.5501 42.01 23.1101 41.61 23.4101 41.28C24.1001 40.53 24.1001 39.52 24.0801 39.26V23.93C24.0801 22.04 24.4401 21.91 25.5201 21.52M23.1301 23.94V39.3C23.1301 39.39 23.1701 40.15 22.7101 40.65C22.5301 40.84 22.2001 41.07 21.6301 41.07C21.0601 41.07 20.7301 40.84 20.5501 40.65C20.0901 40.15 20.1301 39.39 20.1301 39.27V23.94C20.1301 21.52 19.4201 21.14 18.0601 20.63C16.6201 20.09 16.6001 19.51 16.6101 19.43V17.12C16.6101 16.66 16.7801 16.4 16.9301 16.26C17.2001 16.01 17.5701 15.98 17.7101 15.98C17.7301 15.98 17.7501 15.98 17.7601 15.98H25.5301C25.6101 15.98 26.0301 15.98 26.3401 16.25C26.4901 16.39 26.6601 16.65 26.6601 17.11V19.4C26.6601 19.4 26.6601 19.43 26.6601 19.44C26.6901 19.73 26.3201 20.21 25.2001 20.62C23.7601 21.14 23.1301 21.61 23.1301 23.93" fill="white"></path><path d="M50.6899 33.92C50.8399 33.89 51.3799 33.83 52.8399 33.83C53.5599 33.83 54.1799 33.56 54.6299 33.05C55.6599 31.91 55.4799 29.97 55.4499 29.79C55.4399 29.48 55.0799 22.25 50.6199 22.22C50.0699 22.19 47.2399 22.29 45.6899 27.48C45.6499 27.62 45.6099 27.75 45.5799 27.89V27.3C45.5799 27.24 45.5799 27.09 45.5799 26.9C45.5599 24.78 44.0699 22.41 42.0999 22.41C40.8199 22.41 39.7599 23.29 39.1699 23.91C38.4999 22.63 37.3399 22.4 36.7399 22.48C36.4499 22.49 35.6499 22.63 34.4699 23.52C33.8999 22.54 33.0699 22.39 32.6099 22.39C31.6899 22.39 31.1299 22.79 30.8299 23.12C30.1399 23.87 30.1399 24.88 30.1599 25.14V39.25C30.1399 39.54 30.1399 40.55 30.8299 41.3C31.1399 41.63 31.6899 42.03 32.6099 42.03C33.5299 42.03 34.0899 41.63 34.3899 41.3C35.0799 40.55 35.0799 39.55 35.0599 39.29V31.35C35.0599 31.35 35.0599 31.27 35.0599 31.23C35.0399 29.96 35.1499 29.16 35.2799 28.75C35.4199 29.19 35.5399 30.03 35.5399 31.23C35.5399 31.27 35.5399 31.31 35.5399 31.35V39.28C35.5199 39.59 35.5299 40.55 36.1599 41.29C36.4499 41.63 36.9899 42.03 37.8599 42.03C38.7299 42.03 39.2699 41.63 39.5699 41.29C40.2099 40.56 40.2199 39.58 40.1999 39.27V31.31C40.1999 31.31 40.1999 31.23 40.1999 31.19C40.1799 29.92 40.2899 29.12 40.4199 28.71C40.5599 29.15 40.6799 29.99 40.6799 31.19C40.6799 31.23 40.6799 31.27 40.6799 31.31V39.24C40.6599 39.53 40.6599 40.54 41.3499 41.29C41.6599 41.62 42.2099 42.02 43.1299 42.02C44.0499 42.02 44.6099 41.62 44.9099 41.29C45.5999 40.54 45.5999 39.53 45.5799 39.27V36.64C45.6899 37.06 45.7699 37.31 45.7899 37.35C45.8499 37.54 47.3499 42.02 50.6199 42.02C53.2699 42.02 54.5699 39.86 54.8799 38.71C55.0599 38.18 55.1499 37.08 54.3499 36.31C53.5499 35.53 52.5199 35.66 51.8599 36.25C51.6199 36.49 51.2099 36.76 51.0699 36.77C50.4199 36.77 50.3099 35.71 50.3099 35.24C50.3099 34.32 50.5499 34.02 50.6199 33.94C50.6399 33.94 50.6699 33.93 50.6899 33.92ZM44.2199 40.64C44.0399 40.83 43.7099 41.06 43.1399 41.06C42.5699 41.06 42.2399 40.83 42.0599 40.64C41.5999 40.14 41.6399 39.38 41.6399 39.26V31.28C41.6399 31.28 41.6399 31.21 41.6399 31.19C41.6399 29.36 41.4099 28.2 40.9599 27.73C40.8099 27.58 40.6499 27.5 40.4599 27.5C40.2299 27.5 40.0299 27.59 39.8699 27.76C39.3199 28.33 39.2299 29.94 39.2599 31.21C39.2599 31.23 39.2599 31.25 39.2599 31.27V39.26C39.2599 39.26 39.2599 39.26 39.2599 39.27C39.2599 39.28 39.2599 39.28 39.2599 39.28C39.2599 39.37 39.2999 40.14 38.8599 40.64C38.6299 40.91 38.2899 41.05 37.8799 41.05C37.4699 41.05 37.1299 40.91 36.8999 40.64C36.4699 40.14 36.4999 39.38 36.4999 39.29C36.4999 39.29 36.4999 39.29 36.4999 39.28C36.4999 39.28 36.4999 39.28 36.4999 39.27V31.31C36.4999 31.31 36.4999 31.24 36.4999 31.22C36.4999 29.39 36.2699 28.23 35.8199 27.76C35.6799 27.61 35.5099 27.53 35.3199 27.53C35.0899 27.53 34.8899 27.62 34.7299 27.79C34.1799 28.36 34.0899 29.97 34.1199 31.24C34.1199 31.26 34.1199 31.28 34.1199 31.3V39.3C34.1299 39.44 34.1499 40.15 33.6999 40.63C33.5199 40.82 33.1899 41.05 32.6199 41.05C32.0499 41.05 31.7199 40.82 31.5399 40.63C31.0799 40.13 31.1199 39.37 31.1199 39.25V25.08C31.1199 24.99 31.0799 24.23 31.5399 23.73C31.7199 23.54 32.0499 23.31 32.6199 23.31C33.0999 23.31 33.4699 23.57 33.7199 24.1C33.7199 24.1 33.7399 24.15 33.7499 24.15C33.7699 24.2 33.7899 24.25 33.8199 24.3C33.8399 24.35 33.8599 24.39 33.8999 24.43C33.8999 24.44 33.9199 24.46 33.9399 24.47C34.0099 24.54 34.0999 24.59 34.1999 24.6C34.4699 24.64 34.8099 24.44 35.0399 24.26C36.0799 23.47 36.6999 23.39 36.8399 23.39C36.8899 23.39 37.9399 23.27 38.4499 24.56C38.5299 24.75 38.6099 24.91 38.6899 25.02C38.7899 25.15 38.9499 25.23 39.1199 25.21C39.2599 25.2 39.3899 25.12 39.4699 25C39.5399 24.9 40.7299 23.32 42.1099 23.32C43.4899 23.32 44.6299 25.27 44.6399 26.88C44.6399 26.89 44.6399 26.9 44.6399 26.92C44.6499 27.07 44.6399 27.18 44.6399 27.24V39.26C44.6399 39.35 44.6799 40.11 44.2199 40.61M50.3699 33.02C50.3199 33.02 50.2699 33.04 50.2199 33.07C49.9499 33.2 49.3499 33.67 49.3499 35.25C49.3499 37.59 50.6699 37.73 51.0699 37.73C51.7499 37.73 52.4699 37 52.4799 36.99C52.4999 36.97 53.0999 36.45 53.6899 37.01C54.1499 37.45 54.0799 38.12 53.9699 38.44C53.7199 39.38 52.6899 41.07 50.6199 41.07C48.0399 41.07 46.7099 37.11 46.6999 37.06C46.6399 36.88 45.1899 32.57 46.6199 27.76C47.9099 23.42 50.0499 23.18 50.5299 23.18C50.5599 23.18 50.5799 23.18 50.5999 23.18C52.0499 23.18 53.1499 24.24 53.8399 26.31C54.4099 28 54.4899 29.76 54.4999 29.86C54.4999 29.88 54.6799 31.56 53.9199 32.41C53.6499 32.71 53.2799 32.87 52.8399 32.87C51.1799 32.87 50.6099 32.96 50.4399 32.99C50.4099 32.99 50.3899 33 50.3599 33.01" fill="white"></path><path d="M29.5699 25.16C29.5899 24.87 29.5899 23.86 28.8999 23.11C28.5899 22.78 28.0399 22.38 27.1199 22.38C26.1999 22.38 25.6399 22.78 25.3399 23.11C24.6499 23.86 24.6499 24.87 24.6699 25.13V39.24C24.6499 39.53 24.6499 40.54 25.3399 41.29C25.6499 41.62 26.1999 42.02 27.1199 42.02C28.0399 42.02 28.5899 41.62 28.8999 41.29C29.5899 40.54 29.5899 39.53 29.5699 39.27V25.16ZM28.1999 40.64C28.0199 40.83 27.6899 41.06 27.1199 41.06C26.5499 41.06 26.2199 40.83 26.0399 40.64C25.5799 40.14 25.6199 39.38 25.6199 39.26V25.09C25.6199 25 25.5799 24.24 26.0399 23.74C26.2199 23.55 26.5499 23.32 27.1199 23.32C27.6899 23.32 28.0199 23.55 28.1999 23.74C28.6599 24.24 28.6199 25 28.6199 25.12V39.29C28.6199 39.38 28.6599 40.14 28.1999 40.64Z" fill="white"></path><path d="M62.7901 36.6599C62.3401 36.6599 61.9401 36.3999 61.7501 35.9899C61.1601 34.7199 60.8501 32.3099 60.8501 29.0199C60.8501 24.6599 61.3301 22.5999 61.7301 21.6399C61.9101 21.2099 62.3301 20.9299 62.7901 20.9299C63.2501 20.9299 63.6701 21.2099 63.8501 21.6399C64.2501 22.5999 64.7301 24.6599 64.7301 29.0199C64.7301 32.3099 64.4201 34.7199 63.8401 35.9899C63.6501 36.3999 63.2501 36.6599 62.8001 36.6599M62.7901 21.9199C62.7201 21.9199 62.6601 21.9599 62.6401 22.0199C62.2701 22.8999 61.8401 24.8199 61.8401 29.0199C61.8401 33.2199 62.3501 34.9299 62.6501 35.5799C62.6801 35.6399 62.7401 35.6799 62.8001 35.6799C62.8601 35.6799 62.9201 35.6399 62.9501 35.5799C63.2501 34.9299 63.7501 33.2099 63.7501 29.0199C63.7501 24.8299 63.3101 22.8999 62.9501 22.0199C62.9201 21.9599 62.8601 21.9199 62.8001 21.9199" fill="white"></path><path d="M50.4601 26.6699C50.4601 26.6699 49.3401 26.6699 49.3401 28.3899C49.3401 30.0199 50.4601 29.9099 50.4601 29.9099C50.4601 29.9099 51.5801 30.0099 51.5801 28.3899C51.5801 26.6699 50.4601 26.6699 50.4601 26.6699ZM50.4601 28.9599H50.4501C50.2801 28.9599 50.2901 28.7599 50.2901 28.2199C50.2901 27.6799 50.4501 27.6599 50.4501 27.6599H50.4601C50.4601 27.6599 50.6201 27.6799 50.6201 28.2199C50.6201 28.7599 50.6201 28.9599 50.4601 28.9599Z" fill="white"></path><path d="M85.35 37.34C85.25 37.32 84.38 37.12 84.38 35.46V27.34C84.38 27.34 84.38 27.32 84.38 27.31C85.4 27.16 86.3701 26.32 86.3701 24.9C86.3701 23.48 85.3801 22.71 84.3701 22.5V19.13C84.3901 18.84 84.39 17.83 83.7 17.08C83.39 16.75 82.84 16.35 81.92 16.35C81 16.35 80.44 16.75 80.14 17.08C79.45 17.83 79.4501 18.84 79.4701 19.1V22C79.4601 22.06 79.46 22.12 79.46 22.17V22.71C79.04 22.91 78.7001 23.22 78.4701 23.61C78.3801 23.44 78.2701 23.26 78.1201 23.1C77.8201 22.77 77.26 22.37 76.34 22.37C75.42 22.37 74.86 22.77 74.56 23.1C73.87 23.85 73.87 24.86 73.89 25.12V34.08C73.89 34.08 73.89 34.18 73.89 34.23V34.45C73.89 34.52 73.89 34.59 73.89 34.65C73.89 34.81 73.89 34.94 73.88 35.06V35.14C73.88 35.48 73.7901 35.76 73.68 35.76C73.57 35.76 73.49 35.48 73.49 35.14L73.4701 34.69C73.4701 34.69 73.4701 34.68 73.4701 34.67C73.4601 34.38 73.4701 34.11 73.4701 33.93C73.4701 33.66 73.4701 33.39 73.4701 33.18V25.14C73.4801 24.93 73.5101 23.86 72.8001 23.09C72.4901 22.76 71.94 22.36 71.02 22.36C70.1 22.36 69.54 22.76 69.24 23.09C69.01 23.35 68.85 23.63 68.75 23.9C68.2701 20.59 67.27 18.24 65.74 16.87C64.41 15.68 63.1001 15.67 62.8101 15.69C62.4301 15.67 61.18 15.69 59.89 16.84C57.67 18.79 56.55 22.85 56.55 28.91C56.55 34.97 57.67 38.85 59.87 40.82C61.08 41.9 62.26 42.02 62.71 42.02C62.75 42.02 62.79 42.02 62.82 42.02C63.21 42.03 64.47 41.97 65.77 40.78C67.11 39.56 68.05 37.59 68.57 34.9V36.83C68.56 37.33 68.57 39.9 69.85 41.21C70.34 41.71 70.93 41.97 71.6101 41.98C72.6101 41.98 73.4001 41.8 74.3001 40.89C74.7201 41.6 75.4501 42 76.3701 42C77.2901 42 77.8401 41.6 78.1501 41.27C78.8401 40.52 78.84 39.51 78.82 39.25V26.58C79.01 26.77 79.23 26.93 79.49 27.06C79.49 27.08 79.49 27.1 79.49 27.12V35.96C79.49 36.04 79.4801 36.27 79.5101 36.51C79.8901 41.58 83.0301 41.97 83.9701 41.97H84.0401C84.2701 41.97 84.8501 41.94 85.4101 41.7C86.2801 41.33 86.77 40.59 86.77 39.67C86.77 37.72 85.76 37.38 85.34 37.33M65.1 40.08C64.01 41.07 63.0001 41.08 62.8101 41.07C62.7901 41.07 62.78 41.07 62.76 41.07C62.52 41.08 61.53 41.06 60.48 40.12C58.49 38.34 57.48 34.57 57.48 28.92C57.48 23.27 58.5 19.34 60.5 17.57C61.43 16.75 62.3001 16.66 62.6501 16.66C62.7001 16.66 62.74 16.66 62.7701 16.66C62.7701 16.66 62.8201 16.66 62.8301 16.66C63.0201 16.65 64.0001 16.64 65.0801 17.6C67.0801 19.39 68.09 23.19 68.09 28.92C68.09 34.65 67.08 38.28 65.1 40.08ZM77.43 40.64C77.25 40.83 76.92 41.06 76.35 41.06C75.6 41.06 75.11 40.68 74.92 39.97C74.88 39.8 74.74 39.67 74.57 39.63C74.53 39.62 74.49 39.62 74.45 39.62C74.32 39.62 74.19 39.67 74.1 39.77L74.0401 39.84C73.25 40.76 72.5801 41.05 71.6601 41.05C71.6501 41.05 71.6301 41.05 71.6201 41.05C71.1901 41.05 70.8201 40.89 70.5101 40.57C69.6701 39.7 69.48 37.84 69.5 36.87V25.12C69.5 25.03 69.46 24.27 69.92 23.77C70.1 23.58 70.43 23.35 71 23.35C71.46 23.35 71.8201 23.49 72.0801 23.77C72.5401 24.27 72.5 25.03 72.5 25.14V33.23C72.5 33.45 72.5 33.7 72.5 33.96C72.5 34.22 72.5 34.44 72.52 34.63V35.37C72.52 36.13 73.0401 36.74 73.68 36.74C74.32 36.74 74.84 36.13 74.84 35.37V34.9C74.84 34.76 74.84 34.62 74.84 34.47V34.23C74.84 34.23 74.84 34.21 74.84 34.2C74.84 34.18 74.84 34.16 74.84 34.13V25.11C74.84 25.02 74.8001 24.26 75.2601 23.76C75.4401 23.57 75.77 23.34 76.34 23.34C76.91 23.34 77.24 23.57 77.42 23.76C77.88 24.25 77.84 25.02 77.84 25.14V39.31C77.84 39.4 77.88 40.16 77.42 40.66M85.0401 40.84C84.6301 41.02 84.1801 41.03 84.0501 41.03H83.9701C81.0301 41.03 80.54 37.53 80.45 36.42C80.42 36.23 80.43 36.06 80.43 36V27.13C80.43 26.82 80.3601 26.58 80.2301 26.42C80.1801 26.35 80.08 26.29 80 26.26C79.4 26.04 79.1 25.58 79.1 24.89C79.1 24.2 79.44 23.7 80.09 23.49C80.26 23.44 80.39 23.29 80.42 23.11C80.42 23.08 80.42 23.04 80.43 22.96V22.15C80.43 22.15 80.43 22.08 80.43 22.04V19.06C80.43 18.97 80.39 18.21 80.85 17.71C81.03 17.52 81.3601 17.29 81.93 17.29C82.5 17.29 82.8301 17.52 83.0101 17.71C83.4701 18.21 83.43 18.97 83.43 19.09V22.91C83.43 23.16 83.63 23.37 83.88 23.39C84.34 23.41 85.42 23.61 85.42 24.89C85.42 25.91 84.7001 26.37 84.0401 26.37C83.9501 26.37 83.8701 26.39 83.8001 26.44C83.4901 26.62 83.4401 27.09 83.43 27.31V35.45C83.43 37.89 85.01 38.24 85.21 38.28C85.6 38.33 85.82 38.84 85.82 39.68C85.82 40.22 85.5601 40.61 85.0401 40.84Z" fill="white"></path></g><defs><clipPath id="clip0_26368_7017"><rect width="102" height="56" fill="white"></rect></clipPath></defs></svg>